<svg width="88" height="88" xmlns="http://www.w3.org/2000/svg"><g><path style="stroke:none;stroke-width:1;stroke-dasharray:none;stroke-linecap:butt;stroke-dashoffset:0;stroke-linejoin:miter;stroke-miterlimit:4;fill:#6a86ea;fill-rule:nonzero;opacity:1" d="M11.663 62.773a1.408 1.408 0 0 0 0 2.454l30.613 17.22a5.633 5.633 0 0 0 5.522 0L80.594 64 45.037 44 11.663 62.773Z"/><path style="stroke:none;stroke-width:1;stroke-dasharray:none;stroke-linecap:butt;stroke-dashoffset:0;stroke-linejoin:miter;stroke-miterlimit:4;fill:#cb64e8;fill-rule:nonzero;opacity:1" d="M80.593 24 47.798 5.553a5.633 5.633 0 0 0-5.523 0l-30.612 17.22a1.408 1.408 0 0 0 0 2.454L45.037 44l35.556-20Z"/><path style="stroke:none;stroke-width:1;stroke-dasharray:none;stroke-linecap:butt;stroke-dashoffset:0;stroke-linejoin:miter;stroke-miterlimit:4;fill:#e75a79;fill-rule:nonzero;opacity:1" d="M9.975 28.573A1.408 1.408 0 0 0 8 29.862v28.276a1.408 1.408 0 0 0 1.975 1.29L45.037 44 9.975 28.573Z"/></g></svg>